<svg width="7" height="11" viewBox="0 0 7 11" fill="none" xmlns="http://www.w3.org/2000/svg">
<path d="M3.31417 10.14C2.91284 10.14 2.50684 10.0887 2.09617 9.986C1.69484 9.88333 1.33084 9.72467 1.00417 9.51C0.742839 9.33267 0.523505 9.14133 0.346172 8.936C0.178172 8.72133 0.0941719 8.488 0.0941719 8.236C0.0941719 7.99333 0.136172 7.844 0.220172 7.788C0.313505 7.732 0.453505 7.704 0.640172 7.704H1.56417L1.70417 7.844V8.334C1.70417 8.71667 1.83484 9.00133 2.09617 9.188C2.35751 9.37467 2.70751 9.468 3.14617 9.468C3.66884 9.468 4.06551 9.29067 4.33617 8.936C4.60684 8.58133 4.74217 8.13333 4.74217 7.592C4.74217 6.93867 4.57417 6.43467 4.23817 6.08C3.91151 5.72533 3.34684 5.548 2.54417 5.548H1.80217V4.876H2.50217C3.06217 4.876 3.49617 4.68467 3.80417 4.302C4.11217 3.91 4.26617 3.434 4.26617 2.874C4.26617 1.81 3.86951 1.278 3.07617 1.278C2.74951 1.278 2.46951 1.39 2.23617 1.614C2.01217 1.82867 1.90017 2.14133 1.90017 2.552V3.168L1.78817 3.294H0.850172C0.672839 3.294 0.537505 3.266 0.444172 3.21C0.350839 3.14467 0.304172 2.99067 0.304172 2.748C0.304172 2.216 0.612172 1.75867 1.22817 1.376C1.62951 1.11467 1.99817 0.923333 2.33417 0.802C2.67951 0.680666 3.09951 0.62 3.59417 0.62C4.13551 0.62 4.62084 0.708666 5.05017 0.886C5.48884 1.06333 5.83417 1.31533 6.08617 1.642C6.33817 1.96867 6.46417 2.36067 6.46417 2.818C6.46417 3.19133 6.35217 3.52267 6.12817 3.812C5.91351 4.10133 5.61951 4.344 5.24617 4.54C4.88217 4.736 4.46684 4.876 4.00017 4.96C4.93351 5.072 5.65684 5.33333 6.17017 5.744C6.69284 6.14533 6.95417 6.71467 6.95417 7.452C6.95417 7.97467 6.78151 8.44133 6.43617 8.852C6.10017 9.25333 5.65684 9.57067 5.10617 9.804C4.55551 10.028 3.95817 10.14 3.31417 10.14Z" fill="white"/>
</svg>
