<svg width="7" height="10" viewBox="0 0 7 10" fill="none" xmlns="http://www.w3.org/2000/svg">
<path d="M0.304172 10V9.482C1.06017 8.66067 1.68551 7.97467 2.18017 7.424C2.67484 6.864 3.06684 6.388 3.35617 5.996C3.65484 5.604 3.87417 5.254 4.01417 4.946C4.16351 4.62867 4.25684 4.316 4.29417 4.008C4.34084 3.69067 4.36417 3.32667 4.36417 2.916C4.36417 2.468 4.26151 2.09 4.05617 1.782C3.85084 1.474 3.53817 1.32 3.11817 1.32C2.67017 1.32 2.32951 1.46 2.09617 1.74C1.87217 2.02 1.76017 2.41667 1.76017 2.93V3.588L1.66217 3.714H0.710172C0.523505 3.714 0.383505 3.68133 0.290172 3.616C0.196839 3.55067 0.150172 3.38733 0.150172 3.126C0.150172 2.85533 0.234172 2.58467 0.402172 2.314C0.570172 2.034 0.850172 1.754 1.24217 1.474C1.60617 1.20333 1.96551 0.993333 2.32017 0.843999C2.67484 0.694666 3.14151 0.62 3.72017 0.62C4.28017 0.62 4.77484 0.732 5.20417 0.956C5.63351 1.17067 5.96484 1.46933 6.19817 1.852C6.44084 2.22533 6.56217 2.64067 6.56217 3.098C6.56217 3.38733 6.52484 3.658 6.45017 3.91C6.38484 4.162 6.26351 4.42333 6.08617 4.694C5.90884 4.95533 5.65684 5.25867 5.33017 5.604C5.00351 5.94 4.57884 6.33667 4.05617 6.794C3.54284 7.25133 2.90817 7.79733 2.15217 8.432H5.86217L6.67417 7.032H6.89817L6.75817 10H0.304172Z" fill="white"/>
</svg>
