<svg width="13" height="11" viewBox="0 0 13 11" fill="none" xmlns="http://www.w3.org/2000/svg">
<path d="M0.387501 3.76127L3.19625 0.951894C3.27562 0.872508 3.38084 0.824241 3.49278 0.815868C3.60473 0.807495 3.71596 0.839573 3.80625 0.906269L3.85938 0.95127L6.67438 3.76064C6.75768 3.84429 6.80636 3.95629 6.81068 4.07427C6.815 4.19224 6.77464 4.3075 6.69768 4.39702C6.62071 4.48653 6.5128 4.54371 6.39551 4.55713C6.27823 4.57055 6.16019 4.53922 6.065 4.46939L6.0125 4.42439L3.99813 2.41377L3.99813 9.72377C3.99799 9.83684 3.95699 9.94605 3.88268 10.0313C3.80837 10.1165 3.70575 10.172 3.59375 10.1875L3.53063 10.1919C3.41735 10.1919 3.30791 10.1509 3.22254 10.0764C3.13718 10.002 3.08166 9.89912 3.06625 9.78689L3.06188 9.72314L3.06125 2.41189L1.05063 4.42314C0.971259 4.50253 0.866037 4.5508 0.754094 4.55917C0.642151 4.56754 0.53092 4.53547 0.440626 4.46877L0.388126 4.42314C0.30874 4.34378 0.260473 4.23856 0.2521 4.12661C0.243727 4.01467 0.275805 3.90344 0.342501 3.81314L0.388126 3.76064L3.19688 0.95127L0.388126 3.76064L0.387501 3.76127ZM9.40625 0.81252L9.46875 0.808145C9.58213 0.807998 9.69172 0.848952 9.77722 0.923419C9.86272 0.997885 9.91833 1.10082 9.93375 1.21315L9.93813 1.27689L9.9375 8.58689L11.95 6.57377C12.0294 6.49438 12.1346 6.44612 12.2465 6.43774C12.3585 6.42937 12.4697 6.46145 12.56 6.52814L12.6125 6.57314C12.6921 6.65255 12.7404 6.75789 12.7488 6.86998C12.7572 6.98206 12.725 7.09343 12.6581 7.18377L12.6131 7.23627L9.8025 10.0488C9.72313 10.1282 9.61791 10.1764 9.50597 10.1848C9.39403 10.1932 9.2828 10.1611 9.1925 10.0944L9.14 10.0488L6.325 7.23627C6.2419 7.15252 6.19344 7.04051 6.18929 6.92261C6.18514 6.8047 6.2256 6.68956 6.3026 6.60017C6.3796 6.51079 6.48748 6.45372 6.6047 6.44037C6.72192 6.42702 6.83987 6.45836 6.935 6.52814L6.9875 6.57314L9 8.58439V1.27689C9.00005 1.16343 9.04124 1.05384 9.11595 0.968444C9.19066 0.883049 9.2938 0.827648 9.40625 0.81252L9.46875 0.808145L9.40625 0.81252Z" fill="#1F4C6B"/>
</svg>
